<svg width="110" height="108" viewBox="0 0 110 108" fill="none" xmlns="http://www.w3.org/2000/svg">
<path d="M56.3733 14.848L28.5557 22.1496C17.6789 25.0046 12.4096 34.4051 15.453 45.5314L22.4769 71.2098C25.5117 82.3046 34.8732 87.8649 45.75 85.0099L73.5676 77.7083C84.4444 74.8534 89.6815 65.4613 86.6468 54.3664L79.6229 28.688C76.5795 17.5617 67.2501 11.9931 56.3733 14.848Z" fill="url(#paint0_linear_1_133)"/>
<g opacity="0.5" filter="url(#filter0_f_1_133)">
<rect x="32.3792" y="75.0087" width="43.6506" height="45.4523" rx="13" transform="rotate(-105 32.3792 75.0087)" fill="#4096FE" fill-opacity="0.5"/>
</g>
<foreignObject x="7.6604" y="6.92316" width="125.703" height="124.158"><div xmlns="http://www.w3.org/1999/xhtml" style="backdrop-filter:blur(12px);clip-path:url(#bgblur_0_1_133_clip_path);height:100%;width:100%"></div></foreignObject><path data-figma-bg-blur-radius="24" d="M86.9397 31.4232C93.4738 31.4232 98.9644 33.6726 102.822 37.6273C106.678 41.5808 108.864 47.2006 108.864 53.8743V84.1673C108.864 90.8228 106.677 96.4334 102.822 100.382C98.9645 104.332 93.4738 106.581 86.9397 106.581H54.1223C47.5884 106.581 42.0883 104.333 38.2219 100.383C34.3564 96.4346 32.1604 90.8235 32.1604 84.1673V53.8743C32.1604 47.2001 34.3566 41.5806 38.2219 37.6273C42.0884 33.673 47.5883 31.4232 54.1223 31.4232H86.9397Z" fill="#787878" fill-opacity="0.2" stroke="url(#paint1_linear_1_133)" stroke-linecap="round" stroke-linejoin="round"/>
<foreignObject x="51.3411" y="35.1868" width="50.5373" height="62.9597"><div xmlns="http://www.w3.org/1999/xhtml" style="backdrop-filter:blur(7.5px);clip-path:url(#bgblur_1_1_133_clip_path);height:100%;width:100%"></div></foreignObject><g filter="url(#filter2_d_1_133)" data-figma-bg-blur-radius="15">
<mask id="path-4-inside-1_1_133" fill="white">
<path fill-rule="evenodd" clip-rule="evenodd" d="M82.5832 82.7572C83.0412 83.0204 83.5409 83.1465 84.0367 83.1465C85.0019 83.1465 85.9444 82.6608 86.4782 81.7894C86.7446 81.3511 86.8737 80.8703 86.8782 80.3947C86.8784 80.3745 86.8784 80.3544 86.8781 80.3343C86.8666 79.3981 86.3731 78.4895 85.494 77.9728L72.0188 70.1009L72.0188 52.9678C72.0188 51.4327 70.747 50.1868 69.1799 50.1868C67.6129 50.1868 66.3411 51.4327 66.3411 52.9678V71.6805V71.6816C66.3411 72.6605 66.8672 73.569 67.7227 74.0732L82.5832 82.7572Z"/>
</mask>
<path fill-rule="evenodd" clip-rule="evenodd" d="M82.5832 82.7572C83.0412 83.0204 83.5409 83.1465 84.0367 83.1465C85.0019 83.1465 85.9444 82.6608 86.4782 81.7894C86.7446 81.3511 86.8737 80.8703 86.8782 80.3947C86.8784 80.3745 86.8784 80.3544 86.8781 80.3343C86.8666 79.3981 86.3731 78.4895 85.494 77.9728L72.0188 70.1009L72.0188 52.9678C72.0188 51.4327 70.747 50.1868 69.1799 50.1868C67.6129 50.1868 66.3411 51.4327 66.3411 52.9678V71.6805V71.6816C66.3411 72.6605 66.8672 73.569 67.7227 74.0732L82.5832 82.7572Z" fill="url(#paint2_linear_1_133)"/>
<path d="M82.5832 82.7572L82.3814 83.1026L82.3839 83.104L82.5832 82.7572ZM86.4782 81.7894L86.8193 81.9983L86.82 81.9972L86.4782 81.7894ZM86.8782 80.3947L87.2782 80.3984V80.3984L86.8782 80.3947ZM86.8781 80.3343L86.4781 80.3392L86.4781 80.3394L86.8781 80.3343ZM85.494 77.9728L85.6967 77.628L85.6958 77.6274L85.494 77.9728ZM72.0188 70.1009H71.6188V70.3305L71.817 70.4463L72.0188 70.1009ZM72.0188 52.9678H72.4188V52.9678H72.0188ZM67.7227 74.0732L67.5195 74.4178L67.5208 74.4186L67.7227 74.0732ZM84.0367 82.7465C83.6092 82.7465 83.1786 82.638 82.7826 82.4104L82.3839 83.104C82.9039 83.4029 83.4725 83.5465 84.0367 83.5465V82.7465ZM86.1371 81.5805C85.6798 82.327 84.8701 82.7465 84.0367 82.7465V83.5465C85.1338 83.5465 86.2091 82.9946 86.8193 81.9983L86.1371 81.5805ZM86.4782 80.3909C86.4744 80.7961 86.3646 81.2062 86.1364 81.5816L86.82 81.9972C87.1246 81.4961 87.2731 80.9445 87.2782 80.3984L86.4782 80.3909ZM86.4781 80.3394C86.4784 80.3565 86.4784 80.3737 86.4782 80.3909L87.2782 80.3984C87.2784 80.3753 87.2784 80.3523 87.2781 80.3292L86.4781 80.3394ZM87.2781 80.3293C87.2648 79.256 86.6989 78.217 85.6967 77.628L85.2913 78.3176C86.0472 78.7619 86.4683 79.5402 86.4781 80.3392L87.2781 80.3293ZM85.6958 77.6274L72.2206 69.7555L71.817 70.4463L85.2922 78.3182L85.6958 77.6274ZM71.6188 52.9678L71.6188 70.1009H72.4188L72.4188 52.9678H71.6188ZM69.1799 50.5868C70.5339 50.5868 71.6188 51.6613 71.6188 52.9678H72.4188C72.4188 51.204 70.9601 49.7868 69.1799 49.7868V50.5868ZM66.7411 52.9678C66.7411 51.6613 67.826 50.5868 69.1799 50.5868V49.7868C67.3998 49.7868 65.9411 51.204 65.9411 52.9678H66.7411ZM66.7411 71.6805V52.9678H65.9411V71.6805H66.7411ZM66.7411 71.6816V71.6805H65.9411V71.6816H66.7411ZM67.9258 73.7287C67.1896 73.2947 66.7411 72.5158 66.7411 71.6816H65.9411C65.9411 72.8052 66.5448 73.8432 67.5195 74.4178L67.9258 73.7287ZM82.785 82.4118L67.9245 73.7279L67.5208 74.4186L82.3814 83.1025L82.785 82.4118Z" fill="url(#paint3_linear_1_133)" mask="url(#path-4-inside-1_1_133)"/>
</g>
<defs>
<filter id="filter0_f_1_133" x="0" y="0" width="97.3643" height="96.0902" filterUnits="userSpaceOnUse" color-interpolation-filters="sRGB">
<feFlood flood-opacity="0" result="BackgroundImageFix"/>
<feBlend mode="normal" in="SourceGraphic" in2="BackgroundImageFix" result="shape"/>
<feGaussianBlur stdDeviation="12" result="effect1_foregroundBlur_1_133"/>
</filter>
<clipPath id="bgblur_0_1_133_clip_path" transform="translate(-7.6604 -6.92316)"><path d="M86.9397 31.4232C93.4738 31.4232 98.9644 33.6726 102.822 37.6273C106.678 41.5808 108.864 47.2006 108.864 53.8743V84.1673C108.864 90.8228 106.677 96.4334 102.822 100.382C98.9645 104.332 93.4738 106.581 86.9397 106.581H54.1223C47.5884 106.581 42.0883 104.333 38.2219 100.383C34.3564 96.4346 32.1604 90.8235 32.1604 84.1673V53.8743C32.1604 47.2001 34.3566 41.5806 38.2219 37.6273C42.0884 33.673 47.5883 31.4232 54.1223 31.4232H86.9397Z"/>
</clipPath><filter id="filter2_d_1_133" x="51.3411" y="35.1868" width="50.5373" height="62.9597" filterUnits="userSpaceOnUse" color-interpolation-filters="sRGB">
<feFlood flood-opacity="0" result="BackgroundImageFix"/>
<feColorMatrix in="SourceAlpha" type="matrix" values="0 0 0 0 0 0 0 0 0 0 0 0 0 0 0 0 0 0 127 0" result="hardAlpha"/>
<feOffset dx="5" dy="5"/>
<feGaussianBlur stdDeviation="5"/>
<feColorMatrix type="matrix" values="0 0 0 0 0 0 0 0 0 0.533333 0 0 0 0 1 0 0 0 0.63 0"/>
<feBlend mode="normal" in2="BackgroundImageFix" result="effect1_dropShadow_1_133"/>
<feBlend mode="normal" in="SourceGraphic" in2="effect1_dropShadow_1_133" result="shape"/>
</filter>
<clipPath id="bgblur_1_1_133_clip_path" transform="translate(-51.3411 -35.1868)"><path fill-rule="evenodd" clip-rule="evenodd" d="M82.5832 82.7572C83.0412 83.0204 83.5409 83.1465 84.0367 83.1465C85.0019 83.1465 85.9444 82.6608 86.4782 81.7894C86.7446 81.3511 86.8737 80.8703 86.8782 80.3947C86.8784 80.3745 86.8784 80.3544 86.8781 80.3343C86.8666 79.3981 86.3731 78.4895 85.494 77.9728L72.0188 70.1009L72.0188 52.9678C72.0188 51.4327 70.747 50.1868 69.1799 50.1868C67.6129 50.1868 66.3411 51.4327 66.3411 52.9678V71.6805V71.6816C66.3411 72.6605 66.8672 73.569 67.7227 74.0732L82.5832 82.7572Z"/>
</clipPath><linearGradient id="paint0_linear_1_133" x1="42.4485" y1="18.503" x2="58.9929" y2="81.5339" gradientUnits="userSpaceOnUse">
<stop stop-color="#0088FF"/>
<stop offset="0.5" stop-color="#0088FF"/>
</linearGradient>
<linearGradient id="paint1_linear_1_133" x1="44.7111" y1="40.5627" x2="91.8017" y2="100.101" gradientUnits="userSpaceOnUse">
<stop stop-color="white" stop-opacity="0.25"/>
<stop offset="1" stop-color="white" stop-opacity="0"/>
</linearGradient>
<linearGradient id="paint2_linear_1_133" x1="85.4223" y1="56.1387" x2="62.5308" y2="56.6037" gradientUnits="userSpaceOnUse">
<stop stop-color="white"/>
<stop offset="1" stop-color="white" stop-opacity="0.2"/>
</linearGradient>
<linearGradient id="paint3_linear_1_133" x1="69.6103" y1="54.0267" x2="90.4155" y2="70.0827" gradientUnits="userSpaceOnUse">
<stop stop-color="white" stop-opacity="0.25"/>
<stop offset="1" stop-color="white" stop-opacity="0"/>
</linearGradient>
</defs>
</svg>
