<svg width="151" height="124" viewBox="0 0 151 124" fill="none" xmlns="http://www.w3.org/2000/svg">
<circle cx="88.5029" cy="62" r="61.5" fill="#8E3AE2" stroke="black"/>
<path d="M27.2305 23.2178C32.6669 23.2178 38.9823 26.5532 45.4531 31.6875C51.9036 36.8056 58.4225 43.641 64.2539 50.4922C70.083 57.3407 75.2132 64.1914 78.8867 69.3311C80.723 71.9002 82.1947 74.041 83.207 75.5391C83.6496 76.1939 84.0037 76.727 84.2627 77.1182H27.2305C12.4714 77.1182 0.5 65.0561 0.5 50.168C0.500101 35.28 12.4715 23.2178 27.2305 23.2178Z" fill="#EDB72B" stroke="black"/>
<path d="M79.5947 23.2178C84.9551 23.2178 91.2722 26.5528 97.791 31.6885C104.288 36.8074 110.898 43.6435 116.829 50.4951C122.758 57.344 127.997 64.1951 131.755 69.335C133.633 71.9044 135.141 74.0458 136.179 75.5439C136.63 76.1962 136.992 76.7274 137.258 77.1182H79.5947C64.6634 77.1182 52.5615 65.0508 52.5615 50.168C52.5616 35.2852 64.6634 23.2178 79.5947 23.2178Z" fill="white" stroke="black"/>
<ellipse cx="74.3049" cy="49.695" rx="16.5649" ry="17.5114" transform="rotate(-90 74.3049 49.695)" fill="black"/>
<path d="M63.9204 46.3813C63.9205 41.4054 67.7464 37.4156 72.4126 37.4155C77.0789 37.4155 80.9047 41.4054 80.9048 46.3813C80.9048 51.3574 77.0789 55.3472 72.4126 55.3472C67.7463 55.3471 63.9204 51.3574 63.9204 46.3813Z" fill="#EDB72B" stroke="black"/>
<ellipse cx="21.7709" cy="49.695" rx="16.5649" ry="17.9847" transform="rotate(-90 21.7709 49.695)" fill="black"/>
<path d="M11.8579 46.3813C11.858 41.379 15.4969 37.4155 19.8774 37.4155C24.2578 37.4158 27.8959 41.3792 27.896 46.3813C27.896 51.3836 24.2578 55.3469 19.8774 55.3472C15.4969 55.3472 11.8579 51.3838 11.8579 46.3813Z" fill="white" stroke="black"/>
<path d="M75.2881 106.461C75.5432 98.5907 81.7995 92.3159 89.4502 92.3158C97.1009 92.3158 103.357 98.5906 103.612 106.461L75.2881 106.461Z" fill="black" stroke="black"/>
</svg>
