<svg width="156" height="139" viewBox="0 0 156 139" fill="none" xmlns="http://www.w3.org/2000/svg">
<circle cx="91.6374" cy="64.195" r="63.695" fill="#8E3AE2" stroke="black"/>
<path d="M28.1943 24.022C33.8296 24.022 40.3727 27.4789 47.0732 32.7954C53.7533 38.0957 60.5039 45.1739 66.542 52.2681C72.5778 59.3595 77.8905 66.453 81.6943 71.7749C83.5959 74.4354 85.1197 76.6524 86.168 78.2036C86.6369 78.8975 87.0096 79.4591 87.2793 79.8667H28.1943C12.9029 79.8666 0.5 67.3686 0.5 51.9438C0.500185 36.5192 12.9031 24.0221 28.1943 24.022Z" fill="#EDB72B" stroke="black"/>
<path d="M82.4121 24.022C87.9688 24.022 94.5143 27.4782 101.265 32.7964C107.993 38.0975 114.837 45.1765 120.979 52.271C127.118 59.363 132.543 66.4576 136.434 71.7798C138.379 74.4402 139.939 76.6572 141.014 78.2085C141.493 78.9 141.875 79.4595 142.151 79.8667H82.4121C66.9424 79.8667 54.4043 67.3634 54.4043 51.9438C54.4045 36.5244 66.9425 24.022 82.4121 24.022Z" fill="white" stroke="black"/>
<ellipse cx="76.9361" cy="51.4541" rx="17.1513" ry="18.1314" transform="rotate(-90 76.9361 51.4541)" fill="black"/>
<path d="M66.1655 48.0238C66.1655 42.8627 70.134 38.7231 74.9761 38.723C79.8182 38.723 83.7866 42.8627 83.7866 48.0238C83.7866 53.185 79.8182 57.3246 74.9761 57.3246C70.134 57.3245 66.1655 53.1849 66.1655 48.0238Z" fill="#EDB72B" stroke="black"/>
<ellipse cx="22.5424" cy="51.4541" rx="17.1513" ry="18.6215" transform="rotate(-90 22.5424 51.4541)" fill="black"/>
<path d="M12.2612 48.0238C12.2612 42.8364 16.0346 38.7232 20.5815 38.723C25.1287 38.723 28.9028 42.8363 28.9028 48.0238C28.9028 53.2113 25.1287 57.3246 20.5815 57.3246C16.0346 57.3244 12.2612 53.2112 12.2612 48.0238Z" fill="white" stroke="black"/>
<path d="M151.385 137.538C151.385 137.538 102.708 69.0961 82.7796 57.6619L72.4888 59.132L114.632 137.538H151.385Z" fill="#2BEDE1" stroke="black" stroke-linecap="round"/>
<path d="M95.5207 137.538C95.5207 137.538 46.8435 69.0961 26.9153 57.6619L16.6245 59.132L58.7678 137.538H95.5207Z" fill="#2BEDE1" stroke="black" stroke-linecap="round"/>
</svg>
