<svg width="103" height="117" viewBox="0 0 103 117" fill="none" xmlns="http://www.w3.org/2000/svg">
<path d="M66.8144 25.6787L33.491 25.6732C21.4038 25.6712 14.365 32.7474 14.363 44.8744L14.3563 85.947C14.3542 98.2728 21.3907 105.192 33.4779 105.194L66.8012 105.2C79.0833 105.202 85.9232 98.2846 85.9253 85.9589L85.932 44.8862C85.934 32.7592 79.0964 25.6807 66.8144 25.6787Z" fill="#0088FF"/>
<g filter="url(#filter0_f_346_1766)">
<rect x="26.9977" y="89.1278" width="51.3486" height="43.4826" rx="14" transform="rotate(-89.9905 26.9977 89.1278)" fill="#3EA0FE" fill-opacity="0.35"/>
</g>
<foreignObject x="5.08704" y="0.478516" width="121.569" height="129.521"><div xmlns="http://www.w3.org/1999/xhtml" style="backdrop-filter:blur(12px);clip-path:url(#bgblur_0_346_1766_clip_path);height:100%;width:100%"></div></foreignObject><path data-figma-bg-blur-radius="24" d="M82.5353 24.9785C88.7715 24.9785 93.694 26.7773 97.0568 30.1816C100.419 33.5851 102.156 38.5271 102.156 44.6826V85.7559C102.156 92.0085 100.42 96.9617 97.0568 100.352C93.6926 103.742 88.7686 105.5 82.5353 105.5H49.212C43.0743 105.5 38.151 103.742 34.7628 100.354C31.3747 96.9653 29.5871 92.0126 29.587 85.7559V44.6826L29.5919 44.1094C29.7 38.2163 31.4822 33.4762 34.7628 30.1807C38.1495 26.7786 43.0713 24.9785 49.212 24.9785H82.5353Z" fill="#2785E6" fill-opacity="0.49" stroke="url(#paint0_linear_346_1766)" stroke-linecap="round" stroke-linejoin="round"/>
<foreignObject x="31.8263" y="28.9688" width="67.7324" height="72.4107"><div xmlns="http://www.w3.org/1999/xhtml" style="backdrop-filter:blur(7.5px);clip-path:url(#bgblur_1_346_1766_clip_path);height:100%;width:100%"></div></foreignObject><g filter="url(#filter2_d_346_1766)" data-figma-bg-blur-radius="15">
<mask id="path-4-inside-1_346_1766" fill="white">
<path fill-rule="evenodd" clip-rule="evenodd" d="M50.2852 43.9688V44.0085C48.5715 44.0085 47.1838 45.4001 47.1838 47.1098C47.1838 48.8195 48.5715 50.2112 50.2852 50.2112H62.1696C63.8833 50.2112 65.2749 48.8195 65.2749 47.0661C65.2749 45.3604 63.8833 43.9688 62.1696 43.9688H50.2852ZM81.4574 68.1836H50.2852C48.5715 68.1836 47.1838 66.792 47.1838 65.0823C47.1838 63.3726 48.5715 61.977 50.2852 61.977H81.4574C83.1671 61.977 84.5588 63.3726 84.5588 65.0823C84.5588 66.792 83.1671 68.1836 81.4574 68.1836ZM81.4577 86.3539H50.2855C49.0926 86.513 47.9396 85.9165 47.3034 84.9225C46.6673 83.8888 46.6673 82.5767 47.3034 81.5826C47.9396 80.5489 49.0926 79.9922 50.2855 80.1115H81.4577C83.0442 80.2705 84.241 81.6224 84.241 83.2526C84.241 84.839 83.0442 86.1949 81.4577 86.3539Z"/>
</mask>
<path fill-rule="evenodd" clip-rule="evenodd" d="M50.2852 43.9688V44.0085C48.5715 44.0085 47.1838 45.4001 47.1838 47.1098C47.1838 48.8195 48.5715 50.2112 50.2852 50.2112H62.1696C63.8833 50.2112 65.2749 48.8195 65.2749 47.0661C65.2749 45.3604 63.8833 43.9688 62.1696 43.9688H50.2852ZM81.4574 68.1836H50.2852C48.5715 68.1836 47.1838 66.792 47.1838 65.0823C47.1838 63.3726 48.5715 61.977 50.2852 61.977H81.4574C83.1671 61.977 84.5588 63.3726 84.5588 65.0823C84.5588 66.792 83.1671 68.1836 81.4574 68.1836ZM81.4577 86.3539H50.2855C49.0926 86.513 47.9396 85.9165 47.3034 84.9225C46.6673 83.8888 46.6673 82.5767 47.3034 81.5826C47.9396 80.5489 49.0926 79.9922 50.2855 80.1115H81.4577C83.0442 80.2705 84.241 81.6224 84.241 83.2526C84.241 84.839 83.0442 86.1949 81.4577 86.3539Z" fill="url(#paint1_linear_346_1766)" shape-rendering="crispEdges"/>
<path d="M50.2852 44.0085V44.4085H50.6852V44.0085H50.2852ZM50.2852 43.9688V43.5687H49.8852V43.9688H50.2852ZM50.2855 86.3539V85.9539H50.2589L50.2326 85.9574L50.2855 86.3539ZM81.4577 86.3539V86.7539H81.4777L81.4976 86.7519L81.4577 86.3539ZM47.3034 84.9225L46.9627 85.1322L46.9665 85.1382L47.3034 84.9225ZM47.3034 81.5826L47.6404 81.7983L47.6441 81.7923L47.3034 81.5826ZM50.2855 80.1115L50.2457 80.5095L50.2655 80.5115H50.2855V80.1115ZM81.4577 80.1115L81.4976 79.7135L81.4777 79.7115H81.4577V80.1115ZM50.6852 44.0085V43.9688H49.8852V44.0085H50.6852ZM47.5838 47.1098C47.5838 45.6207 48.7927 44.4085 50.2852 44.4085V43.6085C48.3502 43.6085 46.7838 45.1796 46.7838 47.1098H47.5838ZM50.2852 49.8112C48.7927 49.8112 47.5838 48.599 47.5838 47.1098H46.7838C46.7838 49.0401 48.3502 50.6112 50.2852 50.6112V49.8112ZM62.1696 49.8112H50.2852V50.6112H62.1696V49.8112ZM64.8749 47.0661C64.8749 48.602 63.659 49.8112 62.1696 49.8112V50.6112C64.1075 50.6112 65.6749 49.0371 65.6749 47.0661H64.8749ZM62.1696 44.3688C63.663 44.3688 64.8749 45.582 64.8749 47.0661H65.6749C65.6749 45.1388 64.1035 43.5687 62.1696 43.5687V44.3688ZM50.2852 44.3688H62.1696V43.5687H50.2852V44.3688ZM50.2852 68.5836H81.4574V67.7836H50.2852V68.5836ZM46.7838 65.0823C46.7838 67.0126 48.3502 68.5836 50.2852 68.5836V67.7836C48.7927 67.7836 47.5838 66.5714 47.5838 65.0823H46.7838ZM50.2852 61.577C48.3496 61.577 46.7838 63.1527 46.7838 65.0823H47.5838C47.5838 63.5925 48.7934 62.377 50.2852 62.377V61.577ZM81.4574 61.577H50.2852V62.377H81.4574V61.577ZM84.9588 65.0823C84.9588 63.1524 83.3887 61.577 81.4574 61.577V62.377C82.9456 62.377 84.1588 63.5929 84.1588 65.0823H84.9588ZM81.4574 68.5836C83.3881 68.5836 84.9588 67.0129 84.9588 65.0823H84.1588C84.1588 66.5711 82.9462 67.7836 81.4574 67.7836V68.5836ZM50.2855 86.7539H81.4577V85.9539H50.2855V86.7539ZM46.9665 85.1382C47.679 86.2514 48.9783 86.9318 50.3383 86.7504L50.2326 85.9574C49.207 86.0942 48.2002 85.5817 47.6403 84.7069L46.9665 85.1382ZM46.9665 81.367C46.2446 82.495 46.2491 83.9724 46.9628 85.1322L47.6441 84.7129C47.0854 83.8051 47.0899 82.6583 47.6403 81.7983L46.9665 81.367ZM50.3253 79.7135C48.9824 79.5792 47.6805 80.2067 46.9628 81.373L47.6441 81.7923C48.1987 80.891 49.2029 80.4052 50.2457 80.5095L50.3253 79.7135ZM81.4577 79.7115H50.2855V80.5115H81.4577V79.7115ZM84.641 83.2526C84.641 81.4245 83.296 79.8938 81.4976 79.7135L81.4178 80.5095C82.7924 80.6473 83.841 81.8203 83.841 83.2526H84.641ZM81.4976 86.7519C83.2932 86.5719 84.641 85.0398 84.641 83.2526H83.841C83.841 84.6383 82.7952 85.8178 81.4178 85.9559L81.4976 86.7519Z" fill="url(#paint2_linear_346_1766)" mask="url(#path-4-inside-1_346_1766)"/>
</g>
<defs>
<filter id="filter0_f_346_1766" x="0" y="10.7815" width="97.4865" height="105.351" filterUnits="userSpaceOnUse" color-interpolation-filters="sRGB">
<feFlood flood-opacity="0" result="BackgroundImageFix"/>
<feBlend mode="normal" in="SourceGraphic" in2="BackgroundImageFix" result="shape"/>
<feGaussianBlur stdDeviation="13.5" result="effect1_foregroundBlur_346_1766"/>
</filter>
<clipPath id="bgblur_0_346_1766_clip_path" transform="translate(-5.08704 -0.478516)"><path d="M82.5353 24.9785C88.7715 24.9785 93.694 26.7773 97.0568 30.1816C100.419 33.5851 102.156 38.5271 102.156 44.6826V85.7559C102.156 92.0085 100.42 96.9617 97.0568 100.352C93.6926 103.742 88.7686 105.5 82.5353 105.5H49.212C43.0743 105.5 38.151 103.742 34.7628 100.354C31.3747 96.9653 29.5871 92.0126 29.587 85.7559V44.6826L29.5919 44.1094C29.7 38.2163 31.4822 33.4762 34.7628 30.1807C38.1495 26.7786 43.0713 24.9785 49.212 24.9785H82.5353Z"/>
</clipPath><filter id="filter2_d_346_1766" x="31.8263" y="28.9688" width="67.7324" height="72.4107" filterUnits="userSpaceOnUse" color-interpolation-filters="sRGB">
<feFlood flood-opacity="0" result="BackgroundImageFix"/>
<feColorMatrix in="SourceAlpha" type="matrix" values="0 0 0 0 0 0 0 0 0 0 0 0 0 0 0 0 0 0 127 0" result="hardAlpha"/>
<feOffset dx="5" dy="5"/>
<feGaussianBlur stdDeviation="5"/>
<feComposite in2="hardAlpha" operator="out"/>
<feColorMatrix type="matrix" values="0 0 0 0 0 0 0 0 0 0.533333 0 0 0 0 1 0 0 0 1 0"/>
<feBlend mode="normal" in2="BackgroundImageFix" result="effect1_dropShadow_346_1766"/>
<feBlend mode="normal" in="SourceGraphic" in2="effect1_dropShadow_346_1766" result="shape"/>
</filter>
<clipPath id="bgblur_1_346_1766_clip_path" transform="translate(-31.8263 -28.9688)"><path fill-rule="evenodd" clip-rule="evenodd" d="M50.2852 43.9688V44.0085C48.5715 44.0085 47.1838 45.4001 47.1838 47.1098C47.1838 48.8195 48.5715 50.2112 50.2852 50.2112H62.1696C63.8833 50.2112 65.2749 48.8195 65.2749 47.0661C65.2749 45.3604 63.8833 43.9688 62.1696 43.9688H50.2852ZM81.4574 68.1836H50.2852C48.5715 68.1836 47.1838 66.792 47.1838 65.0823C47.1838 63.3726 48.5715 61.977 50.2852 61.977H81.4574C83.1671 61.977 84.5588 63.3726 84.5588 65.0823C84.5588 66.792 83.1671 68.1836 81.4574 68.1836ZM81.4577 86.3539H50.2855C49.0926 86.513 47.9396 85.9165 47.3034 84.9225C46.6673 83.8888 46.6673 82.5767 47.3034 81.5826C47.9396 80.5489 49.0926 79.9922 50.2855 80.1115H81.4577C83.0442 80.2705 84.241 81.6224 84.241 83.2526C84.241 84.839 83.0442 86.1949 81.4577 86.3539Z"/>
</clipPath><linearGradient id="paint0_linear_346_1766" x1="41.4797" y1="34.7428" x2="93.0665" y2="92.2452" gradientUnits="userSpaceOnUse">
<stop stop-color="white" stop-opacity="0.25"/>
<stop offset="1" stop-color="white" stop-opacity="0"/>
</linearGradient>
<linearGradient id="paint1_linear_346_1766" x1="81.8836" y1="51.6273" x2="39.8439" y2="52.8468" gradientUnits="userSpaceOnUse">
<stop stop-color="white"/>
<stop offset="1" stop-color="white" stop-opacity="0.2"/>
</linearGradient>
<linearGradient id="paint2_linear_346_1766" x1="52.8327" y1="48.9097" x2="80.3778" y2="79.2617" gradientUnits="userSpaceOnUse">
<stop stop-color="white" stop-opacity="0.25"/>
<stop offset="1" stop-color="white" stop-opacity="0"/>
</linearGradient>
</defs>
</svg>
